# xmcd CD database file
#
# Track frame offsets:
#	150
#	34595
#	58532
#	92309
#	121788
#	140770
#	169128
#	196563
#	212424
#	220182
#	233408
#
# Disc length: 3371 seconds
#
# Revision: 0
# Processed by: cddbd v1.5.2PL0 Copyright (c) Steve Scherf et al.
# Submitted via: CDex 1.70beta3
#
DISCID=850d290b
DTITLE=Myra Melford - life carries me this way
DYEAR=2013
DGENRE=Jazz
TTITLE0=park mechanics
TTITLE1=red beach
TTITLE2=red land (for Don Reich)
TTITLE3=piano music
TTITLE4=japanese music
TTITLE5=attic
TTITLE6=curtain
TTITLE7=moonless night
TTITLE8=barcelona
TTITLE9=sagrada familia
TTITLE10=still life
EXTD=YEAR: 2013
EXTT0=
EXTT1=
EXTT2=
EXTT3=
EXTT4=
EXTT5=
EXTT6=
EXTT7=
EXTT8=
EXTT9=
EXTT10=
PLAYORDER=
